<svg width="158" height="118" viewBox="0 0 158 118" fill="none" xmlns="http://www.w3.org/2000/svg">
<path d="M85.2405 5.03766L85.5259 15.3668C85.6322 19.2144 88.7284 22.3086 92.5786 22.4148L102.915 22.7L92.5786 22.9851C88.7284 23.0915 85.6322 26.1855 85.5259 30.0331L85.2405 40.3624L84.955 30.0331C84.8487 26.1855 81.7526 23.0915 77.9023 22.9851L67.5662 22.7L77.9023 22.4148C81.7526 22.3086 84.8487 19.2144 84.955 15.3668L85.2405 5.03766Z" fill="#484D56"/>
<path d="M85.2405 5.03766L85.5259 15.3668C85.6322 19.2144 88.7284 22.3086 92.5786 22.4148L102.915 22.7L92.5786 22.9851C88.7284 23.0915 85.6322 26.1855 85.5259 30.0331L85.2405 40.3624L84.955 30.0331C84.8487 26.1855 81.7526 23.0915 77.9023 22.9851L67.5662 22.7L77.9023 22.4148C81.7526 22.3086 84.8487 19.2144 84.955 15.3668L85.2405 5.03766Z" fill="black" fill-opacity="0.2"/>
<path d="M60.3522 76.7685L60.6085 86.0436C60.704 89.4986 63.4842 92.2771 66.9416 92.3724L76.223 92.6285L66.9416 92.8847C63.4842 92.9801 60.704 95.7584 60.6085 99.2134L60.3522 108.489L60.0959 99.2134C60.0005 95.7584 57.2202 92.9801 53.7629 92.8847L44.4814 92.6285L53.7629 92.3724C57.2202 92.2771 60.0005 89.4986 60.0959 86.0436L60.3522 76.7685Z" fill="#484D56"/>
<path d="M60.3522 76.7685L60.6085 86.0436C60.704 89.4986 63.4842 92.2771 66.9416 92.3724L76.223 92.6285L66.9416 92.8847C63.4842 92.9801 60.704 95.7584 60.6085 99.2134L60.3522 108.489L60.0959 99.2134C60.0005 95.7584 57.2202 92.9801 53.7629 92.8847L44.4814 92.6285L53.7629 92.3724C57.2202 92.2771 60.0005 89.4986 60.0959 86.0436L60.3522 76.7685Z" fill="black" fill-opacity="0.2"/>
<path d="M144.745 35.4566C147.981 44.4213 143.663 55.2538 133.843 65.5595C124.041 75.8479 108.831 85.5197 90.5353 92.1158C72.2394 98.7119 54.3543 100.971 40.2363 99.3073C26.0942 97.6404 15.8501 92.0579 12.6137 83.0931C9.37731 74.1283 13.6955 63.296 23.5152 52.9901C33.3183 42.7018 48.5273 33.03 66.8233 26.4339C85.1194 19.8377 103.004 17.5783 117.123 19.2424C131.264 20.9094 141.509 26.4917 144.745 35.4566Z" stroke="#484D56" stroke-width="0.476532"/>
<path d="M144.745 35.4566C147.981 44.4213 143.663 55.2538 133.843 65.5595C124.041 75.8479 108.831 85.5197 90.5353 92.1158C72.2394 98.7119 54.3543 100.971 40.2363 99.3073C26.0942 97.6404 15.8501 92.0579 12.6137 83.0931C9.37731 74.1283 13.6955 63.296 23.5152 52.9901C33.3183 42.7018 48.5273 33.03 66.8233 26.4339C85.1194 19.8377 103.004 17.5783 117.123 19.2424C131.264 20.9094 141.509 26.4917 144.745 35.4566Z" stroke="black" stroke-opacity="0.2" stroke-width="0.476532"/>
</svg>
